<svg width="69" height="69" viewBox="0 0 69 69" fill="none" xmlns="http://www.w3.org/2000/svg">
<path d="M68.2017 34.3918C68.2017 15.4749 53.0198 0.294647 34.1008 0.294647C15.1819 0.294647 0 15.4749 0 34.3918C0 51.4404 12.3791 65.453 28.7288 68.0219V44.2006H20.0868V34.3918H28.7288V26.9185C28.7288 18.2774 33.8673 13.6066 41.575 13.6066C45.3121 13.6066 49.2827 14.3072 49.2827 14.3072V22.7147H45.0785C40.8743 22.7147 39.4729 25.2837 39.4729 28.0862V34.3918H49.0491L47.6477 44.2006H39.7064V68.0219C55.8226 65.453 68.2017 51.4404 68.2017 34.3918Z" fill="black"/>
<path d="M47.4141 44.2006L48.8155 34.3919H39.2393V28.0862C39.2393 25.2837 40.6407 22.7147 44.8449 22.7147H49.0491V14.3072C49.0491 14.3072 45.0784 13.6066 41.3414 13.6066C33.6336 13.6066 28.4952 18.2774 28.4952 26.9185V34.3919H20.0867V44.2006H28.7287V68.0219C30.3637 68.2555 32.2322 68.489 34.1008 68.489C35.9693 68.489 37.6043 68.2555 39.4728 68.0219V44.2006H47.4141Z" fill="white"/>
</svg>
