<svg width="69" height="69" viewBox="0 0 69 69" fill="none" xmlns="http://www.w3.org/2000/svg">
<path d="M34.3669 68.489C53.2003 68.489 68.4678 53.2232 68.4678 34.3918C68.4678 15.5605 53.2003 0.294647 34.3669 0.294647C15.5336 0.294647 0.266113 15.5605 0.266113 34.3918C0.266113 53.2232 15.5336 68.489 34.3669 68.489Z" fill="black"/>
<path d="M44.8774 21.547C43.476 21.547 42.5417 22.4812 42.5417 23.8825C42.5417 25.2837 43.7096 26.2179 44.8774 26.2179C46.2788 26.2179 47.2131 25.2837 47.2131 23.8825C47.2131 22.4812 46.2788 21.547 44.8774 21.547Z" fill="white"/>
<path d="M34.6005 24.5831C29.2284 24.5831 24.7906 29.0204 24.7906 34.3919C24.7906 39.7634 29.2284 44.2007 34.6005 44.2007C39.9725 44.2007 44.4103 39.7634 44.4103 34.3919C44.4103 29.0204 39.9725 24.5831 34.6005 24.5831ZM34.6005 40.6975C31.097 40.6975 28.2942 37.895 28.2942 34.3919C28.2942 30.8887 31.097 28.0862 34.6005 28.0862C38.104 28.0862 40.9068 30.8887 40.9068 34.3919C40.9068 37.895 38.104 40.6975 34.6005 40.6975Z" fill="white"/>
<path d="M42.3082 54.4765H26.4256C19.8857 54.4765 14.5137 49.105 14.5137 42.5659V26.685C14.5137 20.1458 19.8857 14.7743 26.4256 14.7743H42.3082C48.8481 14.7743 54.2201 20.1458 54.2201 26.685V42.5659C54.4537 49.105 49.0816 54.4765 42.3082 54.4765ZM26.4256 18.0439C21.7543 18.0439 18.2508 21.7806 18.2508 26.2179V42.0987C18.2508 46.7696 21.9878 50.2727 26.4256 50.2727H42.3082C46.9795 50.2727 50.483 46.5361 50.483 42.0987V26.2179C50.483 21.547 46.746 18.0439 42.3082 18.0439H26.4256Z" fill="white"/>
</svg>
