<svg width="69" height="69" viewBox="0 0 69 69" fill="none" xmlns="http://www.w3.org/2000/svg">
<path d="M34.6331 68.489C53.4664 68.489 68.7339 53.2232 68.7339 34.3918C68.7339 15.5605 53.4664 0.294647 34.6331 0.294647C15.7997 0.294647 0.532227 15.5605 0.532227 34.3918C0.532227 53.2232 15.7997 68.489 34.6331 68.489Z" fill="black"/>
<path d="M53.552 22.7148C52.3842 23.1818 50.9828 23.6489 49.815 23.8825C50.5157 23.8825 51.2164 22.7147 51.6835 22.2476C52.1506 21.547 52.6178 20.8464 52.8513 19.9122V19.6787H52.6178C51.2164 20.3793 49.815 21.0799 48.18 21.3135C47.9464 21.3135 47.9464 21.3135 47.9464 21.3135C47.7129 21.0799 47.7129 21.08 47.4793 20.8464C46.7786 20.3793 46.0779 19.9122 45.3772 19.4451C44.4429 18.9781 43.2751 18.7445 42.1072 18.9781C40.9394 18.9781 40.0051 19.4451 39.0709 19.9122C38.1366 20.3793 37.2023 21.08 36.5016 22.0141C35.8009 22.9483 35.3338 23.8825 35.1002 25.0502C34.8667 26.2179 34.8667 27.152 35.1002 28.3198C35.1002 28.5533 35.1002 28.5533 34.8666 28.5533C28.7939 27.6191 23.6554 25.5173 19.4512 20.8464C19.2176 20.6129 19.2176 20.6129 18.9841 20.8464C17.1155 23.6489 18.0498 27.8527 20.3855 29.9545C20.619 30.1881 21.0862 30.4217 21.3197 30.8887C21.0862 30.8887 19.6848 30.6552 18.2834 29.9545C18.0498 29.9545 18.0498 29.9546 18.0498 30.1881C18.0498 30.4216 18.0498 30.6552 18.0498 31.1223C18.2834 33.9248 20.3855 36.4937 22.9547 37.4279C23.1883 37.6614 23.6554 37.6615 23.889 37.6615C23.1883 37.895 22.7212 37.895 21.0862 37.6615C20.8526 37.6615 20.8526 37.6615 20.8526 37.895C22.0204 41.3981 24.8233 42.3323 26.9254 43.0329C27.1589 43.0329 27.3925 43.0329 27.8596 43.0329C27.1589 43.9671 24.8233 44.9013 23.6554 45.1348C21.5533 45.8354 19.4512 46.069 17.3491 45.8354C17.1155 45.8354 16.882 45.8354 16.882 45.8354V46.069C17.3491 46.3025 17.8162 46.536 18.2834 46.7696C19.6848 47.4702 21.0862 48.1709 22.4876 48.4044C30.1953 50.5063 38.6037 48.8715 44.4429 43.2665C48.8807 38.8291 50.5157 32.7571 50.5157 26.4514C50.5157 26.2179 50.7492 25.9843 50.9828 25.9843C52.1506 25.0502 53.0849 24.116 54.0192 22.9483C53.552 23.1818 53.552 22.9483 53.552 22.7148Z" fill="white"/>
</svg>
